<svg xmlns="http://www.w3.org/2000/svg" width="21.269" height="21.868" viewBox="0 0 21.269 21.868">
  <g id="back" transform="translate(0 -1.963)">
    <path id="Path_2" data-name="Path 2" d="M2.737,1.963A2.9,2.9,0,0,1,5.474,5.009V12a1.7,1.7,0,0,1,.413-.382L18.793,3.324a1.506,1.506,0,0,1,1.651,0,1.886,1.886,0,0,1,.825,1.591V21.5a1.884,1.884,0,0,1-.825,1.591,1.5,1.5,0,0,1-1.651,0L5.886,14.8a1.689,1.689,0,0,1-.413-.381v6.368a2.9,2.9,0,0,1-2.737,3.046A2.9,2.9,0,0,1,0,20.785V5.009A2.9,2.9,0,0,1,2.737,1.963Z" fill="#fff"/>
  </g>
</svg>
