<svg xmlns="http://www.w3.org/2000/svg" width="14.33" height="17.15" viewBox="0 0 14.33 17.15">
  <g id="cancel" transform="translate(0 -0.175)">
    <path id="Path_3" data-name="Path 3" d="M13.8,13.4l-4-4.828L13.515,4.1a2.493,2.493,0,0,0,0-3.066,1.59,1.59,0,0,0-2.543,0L7.256,5.51,3.359.81A1.591,1.591,0,0,0,.816.81a2.5,2.5,0,0,0,0,3.066l3.9,4.7L.527,13.623a2.5,2.5,0,0,0,0,3.067,1.59,1.59,0,0,0,2.543,0l4.187-5.048,4,4.828a1.59,1.59,0,0,0,2.543,0A2.494,2.494,0,0,0,13.8,13.4Z" fill="#fff"/>
  </g>
</svg>
