<svg xmlns="http://www.w3.org/2000/svg" xmlns:xlink="http://www.w3.org/1999/xlink" width="35" height="35" viewBox="0 0 35 35">
  <defs>
    <clipPath id="clip-path">
      <rect id="Rectangle_37" data-name="Rectangle 37" width="35" height="35" transform="translate(207 -257)" fill="none" stroke="#fff" stroke-width="1" opacity="0.3"/>
    </clipPath>
  </defs>
  <g id="Mask_Group_9" data-name="Mask Group 9" transform="translate(-207 257)" clip-path="url(#clip-path)">
    <g id="database-configuration" transform="translate(207 -257)">
      <g id="Group_63" data-name="Group 63">
        <ellipse id="Ellipse_6" data-name="Ellipse 6" cx="14.661" cy="6.526" rx="14.661" ry="6.526" transform="translate(0 0)" fill="#fff"/>
        <path id="Path_103" data-name="Path 103" d="M18.057,30.493a2.71,2.71,0,0,1-1.989-2.123q-.7.031-1.406.031C6.563,28.4,0,25.482,0,21.875v4.99c0,3.605,6.563,6.526,14.661,6.526a32.05,32.05,0,0,0,3.38-.182A2.692,2.692,0,0,1,18.057,30.493Z" fill="#fff"/>
        <path id="Path_104" data-name="Path 104" d="M14.661,26.611c.458,0,.908-.012,1.356-.03v-.748A2.709,2.709,0,0,1,18.07,23.2a2.709,2.709,0,0,1-.355-1.723c-.986.092-2.005.142-3.054.142C6.563,21.623,0,18.7,0,15.1v4.99C0,23.69,6.563,26.611,14.661,26.611Z" fill="#fff"/>
        <path id="Path_105" data-name="Path 105" d="M14.661,19.831a31.825,31.825,0,0,0,4.167-.271l1.1-1.1a2.712,2.712,0,0,1,3.285-.424,2.712,2.712,0,0,1,2.622-2.023h2.034c.037,0,.073.008.108.009a3.834,3.834,0,0,0,1.348-2.721V8.316c0,3.605-6.563,6.526-14.661,6.526S0,11.921,0,8.316v4.99C0,16.911,6.563,19.831,14.661,19.831Z" fill="#fff"/>
      </g>
      <g id="Group_64" data-name="Group 64">
        <path id="Path_106" data-name="Path 106" d="M35,27.865V25.831l-2.42-.4a5.9,5.9,0,0,0-.664-1.607l1.41-2.009-1.439-1.439L29.9,21.808a5.8,5.8,0,0,0-1.614-.671l-.423-2.408H25.831l-.392,2.4a5.858,5.858,0,0,0-1.619.663l-1.98-1.413L20.4,21.819l1.393,1.99a5.821,5.821,0,0,0-.675,1.624l-2.39.4v2.034l2.389.423a5.749,5.749,0,0,0,.675,1.626l-1.411,1.973,1.439,1.44,1.993-1.4a5.877,5.877,0,0,0,1.619.667l.4,2.4h2.034l.427-2.408a5.866,5.866,0,0,0,1.611-.674l2.008,1.409,1.437-1.44L31.915,29.9a5.816,5.816,0,0,0,.663-1.609ZM26.865,29.7A2.837,2.837,0,1,1,29.7,26.865,2.837,2.837,0,0,1,26.865,29.7Z" fill="#fff"/>
      </g>
    </g>
  </g>
</svg>
