<svg xmlns="http://www.w3.org/2000/svg" xmlns:xlink="http://www.w3.org/1999/xlink" width="35" height="35" viewBox="0 0 35 35">
  <defs>
    <clipPath id="clip-path">
      <rect id="Rectangle_31" data-name="Rectangle 31" width="35" height="35" transform="translate(-56 -257)" fill="none" stroke="#fff" stroke-width="1" opacity="0.3"/>
    </clipPath>
  </defs>
  <g id="Mask_Group_4" data-name="Mask Group 4" transform="translate(56 257)" clip-path="url(#clip-path)">
    <g id="trash" transform="translate(-56 -257)">
      <path id="Path_73" data-name="Path 73" d="M28.984,4.375H22.969V3.281A3.281,3.281,0,0,0,19.688,0H15.313a3.281,3.281,0,0,0-3.281,3.281V4.375H6.016A2.734,2.734,0,0,0,3.281,7.109V9.3a1.094,1.094,0,0,0,1.094,1.094h26.25A1.094,1.094,0,0,0,31.719,9.3V7.109A2.734,2.734,0,0,0,28.984,4.375ZM14.219,3.281a1.1,1.1,0,0,1,1.094-1.094h4.375a1.1,1.1,0,0,1,1.094,1.094V4.375H14.219Z" fill="#fff"/>
      <path id="Path_74" data-name="Path 74" d="M5.357,12.578a.342.342,0,0,0-.341.358l.9,18.938A3.277,3.277,0,0,0,9.2,35H25.8a3.277,3.277,0,0,0,3.277-3.125l.9-18.938a.342.342,0,0,0-.341-.358Zm16.518,2.734a1.094,1.094,0,0,1,2.188,0V29.531a1.094,1.094,0,0,1-2.187,0Zm-5.469,0a1.094,1.094,0,0,1,2.188,0V29.531a1.094,1.094,0,0,1-2.187,0Zm-5.469,0a1.094,1.094,0,0,1,2.188,0V29.531a1.094,1.094,0,0,1-2.187,0Z" fill="#fff"/>
    </g>
  </g>
</svg>
