<svg xmlns="http://www.w3.org/2000/svg" width="23.671" height="21.868" viewBox="0 0 23.671 21.868">
  <g id="next_2_" data-name="next (2)" transform="translate(0 -1.963)">
    <path id="Path_15" data-name="Path 15" d="M20.625,1.963a3.046,3.046,0,0,0-3.046,3.046V12a1.847,1.847,0,0,0-.459-.382L2.756,3.324A1.837,1.837,0,0,0,0,4.915V21.5a1.838,1.838,0,0,0,2.756,1.592L17.12,14.8a1.859,1.859,0,0,0,.459-.382v6.368a3.046,3.046,0,1,0,6.092,0V5.009A3.046,3.046,0,0,0,20.625,1.963Z" transform="translate(0)" fill="#fff"/>
  </g>
</svg>
