<svg xmlns="http://www.w3.org/2000/svg" width="28.333" height="22.037" viewBox="0 0 28.333 22.037">
  <g id="open-file-button" transform="translate(0 -5)">
    <path id="Path_17" data-name="Path 17" d="M27.987,10.312a1.575,1.575,0,0,0-1.228-.589H25.185a1.574,1.574,0,0,0-1.574-1.574H22.037V6.574A1.574,1.574,0,0,0,20.463,5H1.574A1.574,1.574,0,0,0,0,6.574V25.463a1.574,1.574,0,0,0,1.574,1.574H23.611A1.571,1.571,0,0,0,25.147,25.8L28.3,11.638A1.568,1.568,0,0,0,27.987,10.312ZM1.574,6.574H20.463V8.148H18.889a1.574,1.574,0,0,0-1.574,1.574H7.87a1.574,1.574,0,0,0-1.536,1.233S3.149,25.35,3.149,25.463H1.574V6.574Z" fill="#fff"/>
  </g>
</svg>
