<svg id="settings" xmlns="http://www.w3.org/2000/svg" width="25.779" height="25.779" viewBox="0 0 25.779 25.779">
  <g id="Group_24" data-name="Group 24">
    <path id="Path_29" data-name="Path 29" d="M25.205,10.7l-3.016-.74a9.728,9.728,0,0,0-.634-1.541L23.1,5.856a.751.751,0,0,0-.106-.921L20.845,2.789a.751.751,0,0,0-.921-.106L17.356,4.224a9.728,9.728,0,0,0-1.541-.634L15.09.574A.775.775,0,0,0,14.35,0H11.329a.775.775,0,0,0-.74.574L9.864,3.59a9.728,9.728,0,0,0-1.541.634L5.755,2.684a.751.751,0,0,0-.921.106L2.689,4.934a.751.751,0,0,0-.106.921L4.124,8.424a9.728,9.728,0,0,0-.634,1.541L.574,10.7A.744.744,0,0,0,0,11.43v3.021a.744.744,0,0,0,.574.725l2.915.74a9.728,9.728,0,0,0,.634,1.541L2.583,20.024a.751.751,0,0,0,.106.921l2.145,2.145a.751.751,0,0,0,.921.106l2.568-1.541a9.728,9.728,0,0,0,1.541.634l.725,2.915a.775.775,0,0,0,.74.574H14.35a.775.775,0,0,0,.74-.574l.725-2.915a9.728,9.728,0,0,0,1.541-.634L19.924,23.2a.751.751,0,0,0,.921-.106l2.145-2.145a.751.751,0,0,0,.106-.921l-1.541-2.568a9.728,9.728,0,0,0,.634-1.541l3.016-.74a.744.744,0,0,0,.574-.725V11.43A.744.744,0,0,0,25.205,10.7ZM12.839,16.716a3.776,3.776,0,1,1,3.776-3.776A3.778,3.778,0,0,1,12.839,16.716Z" fill="#fff"/>
  </g>
</svg>
